<?xml version="1.0" encoding="utf-8"?>
<!-- Generator: Adobe Illustrator 24.2.0, SVG Export Plug-In . SVG Version: 6.00 Build 0)  -->
<svg version="1.1" id="Layer_1" xmlns="http://www.w3.org/2000/svg" xmlns:xlink="http://www.w3.org/1999/xlink" x="0px" y="0px"
	 viewBox="0 0 1920 1080" style="enable-background:new 0 0 1920 1080;" xml:space="preserve">
<style type="text/css">
	.st0{fill:none;stroke:#FFFFFF;stroke-width:0.7473;stroke-miterlimit:10;}
	.st1{fill:#FFFFFF;stroke:#FFFFFF;stroke-width:0.7473;stroke-miterlimit:10;}
</style>
<circle class="st0" cx="113.26" cy="64.26" r="37.37"/>
<path class="st1" d="M106.8,49.45c0.85,1.79,1.26,3.76,1.21,5.75c0.08,1.92-0.34,3.83-1.22,5.55c-0.52,0.85-1.2,1.58-2.01,2.14
	c1.37,0.72,2.44,1.89,3.04,3.32c0.73,1.75,1.08,3.63,1.02,5.52c0.03,2.05-0.37,4.09-1.17,5.98c-0.44,1.1-1.07,2.11-1.86,2.99
	c-0.8,0.89-1.84,1.55-2.99,1.89c-1.21,0.35-2.47,0.53-3.74,0.52H87.25V45.44h12.7C103.19,45.51,105.47,46.84,106.8,49.45z
	 M92.49,51.97v8.3h6.4c1.01,0.05,2.01-0.28,2.79-0.93c0.75-0.63,1.07-1.73,1.07-3.31c0-1.76-0.47-2.92-1.41-3.48
	c-0.98-0.42-2.05-0.63-3.12-0.59H92.49z M92.49,66.51v10.04h6.4c0.94,0.05,1.87-0.18,2.67-0.67c1.16-0.82,1.73-2.38,1.73-4.7
	c0-1.96-0.56-3.3-1.67-4.04c-0.8-0.45-1.72-0.68-2.64-0.64H92.49z"/>
<path class="st1" d="M131.94,45.44v6.67h-7.88v30.98h-5.55V52.11h-7.92v-6.67H131.94z"/>
<path class="st1" d="M133.86,75.46h5.42v7.64h-5.42V75.46z"/>
</svg>
