<?xml version="1.0" encoding="utf-8"?>
<!-- Generator: Adobe Illustrator 24.2.0, SVG Export Plug-In . SVG Version: 6.00 Build 0)  -->
<svg version="1.1" id="Layer_1" xmlns="http://www.w3.org/2000/svg" xmlns:xlink="http://www.w3.org/1999/xlink" x="0px" y="0px"
	 viewBox="0 0 510.48 510.48" style="enable-background:new 0 0 510.48 510.48;" xml:space="preserve">
<style type="text/css">
	.st0{fill:#FFFFFF;}
</style>
<g>
	<g>
		<path class="st0" d="M255.24,510.48C114.5,510.48,0,395.98,0,255.24S114.5,0,255.24,0s255.24,114.5,255.24,255.24
			S395.98,510.48,255.24,510.48z M255.24,5.05C117.29,5.05,5.05,117.29,5.05,255.24s112.23,250.19,250.19,250.19
			s250.19-112.23,250.19-250.19S393.19,5.05,255.24,5.05z"/>
	</g>
	<g>
		<path class="st0" d="M211.57,155.06c5.74,12.13,8.55,25.45,8.19,38.87c0.57,13.01-2.27,25.93-8.24,37.5
			c-3.49,5.72-8.12,10.66-13.6,14.51c9.25,4.88,16.52,12.81,20.57,22.44c4.94,11.82,7.3,24.55,6.92,37.35
			c0.21,13.88-2.49,27.66-7.94,40.43c-2.97,7.43-7.23,14.27-12.59,20.22c-5.43,6.05-12.42,10.48-20.22,12.79
			c-8.21,2.4-16.72,3.57-25.27,3.49H79.3V127.92h85.92C187.16,128.43,202.57,137.42,211.57,155.06z M114.78,172.15v56.15h43.32
			c6.84,0.32,13.56-1.91,18.85-6.27c5.05-4.25,7.23-11.68,7.23-22.39c0-11.89-3.18-19.73-9.55-23.5
			c-6.64-2.87-13.84-4.24-21.08-3.99H114.78z M114.78,270.45v67.93h43.26c6.33,0.36,12.62-1.21,18.04-4.5
			c7.83-5.56,11.73-16.12,11.73-31.79c0-13.24-3.77-22.34-11.32-27.29c-5.43-3.08-11.61-4.58-17.84-4.35H114.78z"/>
		<path class="st0" d="M160.25,385.19c-0.29,0-0.58,0-0.87,0H76.77V125.4h88.45c22.88,0.53,39.22,10.12,48.6,28.52l0.03,0.07
			c5.88,12.42,8.8,26.26,8.43,40.01c0.59,13.25-2.36,26.65-8.52,38.59c-3.09,5.07-6.86,9.42-11.3,13.07
			c8.14,5.19,14.59,12.79,18.35,21.74c5.11,12.23,7.51,25.15,7.12,38.41c0.22,14.21-2.52,28.16-8.14,41.35
			c-3.07,7.68-7.47,14.73-13.03,20.91c-5.74,6.4-13.13,11.08-21.38,13.52C177.21,383.98,168.76,385.19,160.25,385.19z M81.83,380.13
			h77.58c8.36,0.11,16.59-1.06,24.57-3.39c7.34-2.18,13.93-6.34,19.04-12.05c5.17-5.74,9.25-12.29,12.12-19.46
			c5.36-12.59,7.96-25.84,7.75-39.46c0.36-12.65-1.9-24.86-6.73-36.42c-3.82-9.07-10.71-16.59-19.42-21.18l-3.66-1.93l3.38-2.37
			c5.23-3.68,9.56-8.3,12.89-13.76c5.67-11,8.42-23.53,7.87-36.07c0.34-13.13-2.4-26.16-7.93-37.87
			c-8.6-16.82-23.03-25.24-44.14-25.73H81.83V380.13z M159.84,340.96c-0.64,0-1.29-0.02-1.94-0.06l-45.65,0v-72.98h46.4
			c6.63-0.23,13.25,1.36,19.09,4.67c8.41,5.51,12.6,15.41,12.6,29.49c0,16.44-4.3,27.83-12.79,33.85
			C172.09,339.27,166.04,340.96,159.84,340.96z M117.31,335.86h40.74c6,0.33,11.73-1.1,16.73-4.13
			c6.93-4.92,10.51-14.92,10.51-29.63c0-12.27-3.42-20.74-10.18-25.18c-4.89-2.76-10.58-4.19-16.36-3.93h-41.44V335.86z
			 M159.4,230.85c-0.47,0-0.94-0.01-1.42-0.03l-45.72,0v-61.21h41.29c7.46-0.25,15.13,1.2,22.08,4.2
			c7.45,4.39,11.08,13.03,11.08,25.82c0,11.94-2.58,19.67-8.13,24.33C173.13,228.44,166.38,230.85,159.4,230.85z M117.31,225.77
			h40.79c6.36,0.3,12.43-1.73,17.24-5.69c4.24-3.56,6.31-10.25,6.31-20.44c0-10.88-2.8-18.06-8.32-21.33
			c-5.97-2.56-12.87-3.85-19.71-3.64h-36.32V225.77z"/>
	</g>
	<g>
		<path class="st0" d="M381.59,127.92v45.13h-53.32v209.55h-37.5V173.06h-53.58v-45.13H381.59z"/>
		<path class="st0" d="M330.8,385.13h-42.55V175.58h-53.57V125.4h149.45v50.19H330.8V385.13z M293.3,380.08h32.45V170.53h53.32
			v-40.08H239.72v40.08h53.57V380.08z"/>
	</g>
	<g>
		<path class="st0" d="M394.53,330.95h36.64v51.65h-36.64V330.95z"/>
		<path class="st0" d="M433.7,385.13h-41.7v-56.7h41.7V385.13z M397.06,380.08h31.59v-46.6h-31.59V380.08z"/>
	</g>
</g>
</svg>
